<mxfile host="Electron" modified="2024-06-09T21:08:40.356Z" agent="Mozilla/5.0 (Windows NT 10.0; Win64; x64) AppleWebKit/537.36 (KHTML, like Gecko) draw.io/24.4.13 Chrome/124.0.6367.207 Electron/30.0.6 Safari/537.36" etag="ZgdFEFsOYOM_fZpOtXC8" version="24.4.13" type="device">
  <diagram name="Page-1" id="6CbBrO_cJn_HHiyN9mHB">
    <mxGraphModel dx="1195" dy="1866" grid="1" gridSize="10" guides="1" tooltips="1" connect="1" arrows="1" fold="1" page="1" pageScale="1" pageWidth="827" pageHeight="1169" math="0" shadow="0">
      <root>
        <mxCell id="0" />
        <mxCell id="1" parent="0" />
        <mxCell id="EUaYELvh9pieF9BwdvQH-1" value="" style="rounded=0;whiteSpace=wrap;html=1;" vertex="1" parent="1">
          <mxGeometry x="220" y="-10" width="450" height="560" as="geometry" />
        </mxCell>
        <mxCell id="EUaYELvh9pieF9BwdvQH-23" style="edgeStyle=orthogonalEdgeStyle;rounded=0;orthogonalLoop=1;jettySize=auto;html=1;endArrow=block;endFill=1;" edge="1" parent="1" source="EUaYELvh9pieF9BwdvQH-2" target="EUaYELvh9pieF9BwdvQH-22">
          <mxGeometry relative="1" as="geometry">
            <Array as="points">
              <mxPoint x="520" y="270" />
              <mxPoint x="520" y="398" />
            </Array>
          </mxGeometry>
        </mxCell>
        <mxCell id="EUaYELvh9pieF9BwdvQH-35" style="edgeStyle=orthogonalEdgeStyle;rounded=0;orthogonalLoop=1;jettySize=auto;html=1;endArrow=block;endFill=1;" edge="1" parent="1" source="EUaYELvh9pieF9BwdvQH-2" target="EUaYELvh9pieF9BwdvQH-34">
          <mxGeometry relative="1" as="geometry">
            <Array as="points">
              <mxPoint x="370" y="270" />
              <mxPoint x="370" y="400" />
            </Array>
          </mxGeometry>
        </mxCell>
        <mxCell id="EUaYELvh9pieF9BwdvQH-2" value="Login" style="ellipse;whiteSpace=wrap;html=1;" vertex="1" parent="1">
          <mxGeometry x="390" y="250" width="110" height="40" as="geometry" />
        </mxCell>
        <mxCell id="EUaYELvh9pieF9BwdvQH-24" style="edgeStyle=orthogonalEdgeStyle;rounded=0;orthogonalLoop=1;jettySize=auto;html=1;endArrow=block;endFill=1;" edge="1" parent="1" source="EUaYELvh9pieF9BwdvQH-19" target="EUaYELvh9pieF9BwdvQH-22">
          <mxGeometry relative="1" as="geometry">
            <Array as="points">
              <mxPoint x="520" y="320" />
              <mxPoint x="520" y="398" />
            </Array>
          </mxGeometry>
        </mxCell>
        <mxCell id="EUaYELvh9pieF9BwdvQH-36" style="edgeStyle=orthogonalEdgeStyle;rounded=0;orthogonalLoop=1;jettySize=auto;html=1;endArrow=block;endFill=1;" edge="1" parent="1" source="EUaYELvh9pieF9BwdvQH-19" target="EUaYELvh9pieF9BwdvQH-34">
          <mxGeometry relative="1" as="geometry">
            <Array as="points">
              <mxPoint x="370" y="320" />
              <mxPoint x="370" y="400" />
            </Array>
          </mxGeometry>
        </mxCell>
        <mxCell id="EUaYELvh9pieF9BwdvQH-19" value="Logout" style="ellipse;whiteSpace=wrap;html=1;" vertex="1" parent="1">
          <mxGeometry x="385" y="300" width="120" height="40" as="geometry" />
        </mxCell>
        <mxCell id="EUaYELvh9pieF9BwdvQH-25" style="edgeStyle=orthogonalEdgeStyle;rounded=0;orthogonalLoop=1;jettySize=auto;html=1;endArrow=block;endFill=1;" edge="1" parent="1" source="EUaYELvh9pieF9BwdvQH-20" target="EUaYELvh9pieF9BwdvQH-22">
          <mxGeometry relative="1" as="geometry">
            <Array as="points">
              <mxPoint x="520" y="370" />
              <mxPoint x="520" y="398" />
            </Array>
          </mxGeometry>
        </mxCell>
        <mxCell id="EUaYELvh9pieF9BwdvQH-37" style="edgeStyle=orthogonalEdgeStyle;rounded=0;orthogonalLoop=1;jettySize=auto;html=1;endArrow=block;endFill=1;" edge="1" parent="1" source="EUaYELvh9pieF9BwdvQH-20" target="EUaYELvh9pieF9BwdvQH-34">
          <mxGeometry relative="1" as="geometry">
            <Array as="points">
              <mxPoint x="370" y="370" />
              <mxPoint x="370" y="400" />
            </Array>
          </mxGeometry>
        </mxCell>
        <mxCell id="EUaYELvh9pieF9BwdvQH-20" value="Register" style="ellipse;whiteSpace=wrap;html=1;" vertex="1" parent="1">
          <mxGeometry x="382.5" y="350" width="125" height="40" as="geometry" />
        </mxCell>
        <mxCell id="EUaYELvh9pieF9BwdvQH-26" style="edgeStyle=orthogonalEdgeStyle;rounded=0;orthogonalLoop=1;jettySize=auto;html=1;endArrow=block;endFill=1;" edge="1" parent="1" source="EUaYELvh9pieF9BwdvQH-21" target="EUaYELvh9pieF9BwdvQH-22">
          <mxGeometry relative="1" as="geometry">
            <Array as="points">
              <mxPoint x="520" y="420" />
              <mxPoint x="520" y="398" />
            </Array>
          </mxGeometry>
        </mxCell>
        <mxCell id="EUaYELvh9pieF9BwdvQH-38" style="edgeStyle=orthogonalEdgeStyle;rounded=0;orthogonalLoop=1;jettySize=auto;html=1;endArrow=block;endFill=1;" edge="1" parent="1" source="EUaYELvh9pieF9BwdvQH-21" target="EUaYELvh9pieF9BwdvQH-34">
          <mxGeometry relative="1" as="geometry">
            <Array as="points">
              <mxPoint x="370" y="420" />
              <mxPoint x="370" y="400" />
            </Array>
          </mxGeometry>
        </mxCell>
        <mxCell id="EUaYELvh9pieF9BwdvQH-21" value="Deactivate Account" style="ellipse;whiteSpace=wrap;html=1;" vertex="1" parent="1">
          <mxGeometry x="385" y="400" width="120" height="40" as="geometry" />
        </mxCell>
        <mxCell id="EUaYELvh9pieF9BwdvQH-22" value="Manage Individual Customer Account" style="ellipse;whiteSpace=wrap;html=1;" vertex="1" parent="1">
          <mxGeometry x="540" y="370" width="110" height="56" as="geometry" />
        </mxCell>
        <mxCell id="EUaYELvh9pieF9BwdvQH-32" style="edgeStyle=orthogonalEdgeStyle;rounded=0;orthogonalLoop=1;jettySize=auto;html=1;" edge="1" parent="1" source="EUaYELvh9pieF9BwdvQH-27" target="EUaYELvh9pieF9BwdvQH-22">
          <mxGeometry relative="1" as="geometry">
            <Array as="points">
              <mxPoint x="690" y="348" />
              <mxPoint x="690" y="398" />
            </Array>
          </mxGeometry>
        </mxCell>
        <mxCell id="EUaYELvh9pieF9BwdvQH-46" style="edgeStyle=orthogonalEdgeStyle;rounded=0;orthogonalLoop=1;jettySize=auto;html=1;exitX=0.5;exitY=0.5;exitDx=0;exitDy=0;exitPerimeter=0;" edge="1" parent="1" source="EUaYELvh9pieF9BwdvQH-27" target="EUaYELvh9pieF9BwdvQH-43">
          <mxGeometry relative="1" as="geometry">
            <Array as="points">
              <mxPoint x="690" y="348" />
              <mxPoint x="690" y="220" />
            </Array>
          </mxGeometry>
        </mxCell>
        <mxCell id="EUaYELvh9pieF9BwdvQH-47" style="edgeStyle=orthogonalEdgeStyle;rounded=0;orthogonalLoop=1;jettySize=auto;html=1;exitX=0.5;exitY=0.5;exitDx=0;exitDy=0;exitPerimeter=0;" edge="1" parent="1" source="EUaYELvh9pieF9BwdvQH-27" target="EUaYELvh9pieF9BwdvQH-44">
          <mxGeometry relative="1" as="geometry">
            <Array as="points">
              <mxPoint x="690" y="348" />
              <mxPoint x="690" y="170" />
            </Array>
          </mxGeometry>
        </mxCell>
        <mxCell id="EUaYELvh9pieF9BwdvQH-48" style="edgeStyle=orthogonalEdgeStyle;rounded=0;orthogonalLoop=1;jettySize=auto;html=1;exitX=0.5;exitY=0.5;exitDx=0;exitDy=0;exitPerimeter=0;" edge="1" parent="1" source="EUaYELvh9pieF9BwdvQH-27" target="EUaYELvh9pieF9BwdvQH-45">
          <mxGeometry relative="1" as="geometry">
            <Array as="points">
              <mxPoint x="690" y="348" />
              <mxPoint x="690" y="120" />
            </Array>
          </mxGeometry>
        </mxCell>
        <mxCell id="EUaYELvh9pieF9BwdvQH-51" style="edgeStyle=orthogonalEdgeStyle;rounded=0;orthogonalLoop=1;jettySize=auto;html=1;exitX=0.5;exitY=0.5;exitDx=0;exitDy=0;exitPerimeter=0;" edge="1" parent="1" source="EUaYELvh9pieF9BwdvQH-27" target="EUaYELvh9pieF9BwdvQH-50">
          <mxGeometry relative="1" as="geometry">
            <Array as="points">
              <mxPoint x="690" y="348" />
              <mxPoint x="690" y="70" />
            </Array>
          </mxGeometry>
        </mxCell>
        <mxCell id="EUaYELvh9pieF9BwdvQH-53" style="edgeStyle=orthogonalEdgeStyle;rounded=0;orthogonalLoop=1;jettySize=auto;html=1;exitX=0.5;exitY=0.5;exitDx=0;exitDy=0;exitPerimeter=0;" edge="1" parent="1" source="EUaYELvh9pieF9BwdvQH-27" target="EUaYELvh9pieF9BwdvQH-52">
          <mxGeometry relative="1" as="geometry">
            <Array as="points">
              <mxPoint x="690" y="348" />
              <mxPoint x="690" y="20" />
            </Array>
          </mxGeometry>
        </mxCell>
        <mxCell id="EUaYELvh9pieF9BwdvQH-27" value="Customer" style="shape=umlActor;verticalLabelPosition=bottom;verticalAlign=top;html=1;outlineConnect=0;" vertex="1" parent="1">
          <mxGeometry x="700" y="318" width="30" height="60" as="geometry" />
        </mxCell>
        <mxCell id="EUaYELvh9pieF9BwdvQH-40" style="edgeStyle=orthogonalEdgeStyle;rounded=0;orthogonalLoop=1;jettySize=auto;html=1;exitX=0.5;exitY=0.5;exitDx=0;exitDy=0;exitPerimeter=0;" edge="1" parent="1" source="EUaYELvh9pieF9BwdvQH-28" target="EUaYELvh9pieF9BwdvQH-34">
          <mxGeometry relative="1" as="geometry">
            <Array as="points">
              <mxPoint x="200" y="340" />
              <mxPoint x="200" y="398" />
            </Array>
          </mxGeometry>
        </mxCell>
        <mxCell id="EUaYELvh9pieF9BwdvQH-28" value="Client&lt;div&gt;&lt;br&gt;&lt;/div&gt;" style="shape=umlActor;verticalLabelPosition=bottom;verticalAlign=top;html=1;outlineConnect=0;" vertex="1" parent="1">
          <mxGeometry x="160" y="310" width="30" height="60" as="geometry" />
        </mxCell>
        <mxCell id="EUaYELvh9pieF9BwdvQH-41" style="edgeStyle=orthogonalEdgeStyle;rounded=0;orthogonalLoop=1;jettySize=auto;html=1;exitX=0.5;exitY=0.5;exitDx=0;exitDy=0;exitPerimeter=0;" edge="1" parent="1" source="EUaYELvh9pieF9BwdvQH-29" target="EUaYELvh9pieF9BwdvQH-34">
          <mxGeometry relative="1" as="geometry">
            <Array as="points">
              <mxPoint x="200" y="440" />
              <mxPoint x="200" y="398" />
            </Array>
          </mxGeometry>
        </mxCell>
        <mxCell id="EUaYELvh9pieF9BwdvQH-29" value="&lt;div&gt;Admin&lt;/div&gt;" style="shape=umlActor;verticalLabelPosition=bottom;verticalAlign=top;html=1;outlineConnect=0;" vertex="1" parent="1">
          <mxGeometry x="160" y="410" width="30" height="60" as="geometry" />
        </mxCell>
        <mxCell id="EUaYELvh9pieF9BwdvQH-34" value="Manage All Accounts" style="ellipse;whiteSpace=wrap;html=1;" vertex="1" parent="1">
          <mxGeometry x="240" y="370" width="110" height="56" as="geometry" />
        </mxCell>
        <mxCell id="EUaYELvh9pieF9BwdvQH-42" value="&lt;font style=&quot;font-size: 24px;&quot;&gt;DB_DDnD_UCD&lt;/font&gt;" style="text;html=1;align=center;verticalAlign=middle;resizable=0;points=[];autosize=1;strokeColor=none;fillColor=none;" vertex="1" parent="1">
          <mxGeometry x="360" y="-50" width="200" height="40" as="geometry" />
        </mxCell>
        <mxCell id="EUaYELvh9pieF9BwdvQH-43" value="View Product Listings" style="ellipse;whiteSpace=wrap;html=1;" vertex="1" parent="1">
          <mxGeometry x="390" y="200" width="110" height="40" as="geometry" />
        </mxCell>
        <mxCell id="EUaYELvh9pieF9BwdvQH-44" value="Add to Cart" style="ellipse;whiteSpace=wrap;html=1;" vertex="1" parent="1">
          <mxGeometry x="390" y="150" width="110" height="40" as="geometry" />
        </mxCell>
        <mxCell id="EUaYELvh9pieF9BwdvQH-45" value="Checkout Cart" style="ellipse;whiteSpace=wrap;html=1;" vertex="1" parent="1">
          <mxGeometry x="390" y="100" width="110" height="40" as="geometry" />
        </mxCell>
        <mxCell id="EUaYELvh9pieF9BwdvQH-50" value="View Cart" style="ellipse;whiteSpace=wrap;html=1;" vertex="1" parent="1">
          <mxGeometry x="390" y="50" width="110" height="40" as="geometry" />
        </mxCell>
        <mxCell id="EUaYELvh9pieF9BwdvQH-52" value="Remove Product From Cart" style="ellipse;whiteSpace=wrap;html=1;" vertex="1" parent="1">
          <mxGeometry x="390" width="110" height="40" as="geometry" />
        </mxCell>
        <mxCell id="EUaYELvh9pieF9BwdvQH-56" style="edgeStyle=orthogonalEdgeStyle;rounded=0;orthogonalLoop=1;jettySize=auto;html=1;" edge="1" parent="1" source="EUaYELvh9pieF9BwdvQH-54" target="EUaYELvh9pieF9BwdvQH-22">
          <mxGeometry relative="1" as="geometry">
            <Array as="points">
              <mxPoint x="520" y="470" />
              <mxPoint x="520" y="398" />
            </Array>
          </mxGeometry>
        </mxCell>
        <mxCell id="EUaYELvh9pieF9BwdvQH-59" style="edgeStyle=orthogonalEdgeStyle;rounded=0;orthogonalLoop=1;jettySize=auto;html=1;endArrow=block;endFill=1;" edge="1" parent="1" source="EUaYELvh9pieF9BwdvQH-54" target="EUaYELvh9pieF9BwdvQH-34">
          <mxGeometry relative="1" as="geometry">
            <Array as="points">
              <mxPoint x="370" y="470" />
              <mxPoint x="370" y="400" />
            </Array>
          </mxGeometry>
        </mxCell>
        <mxCell id="EUaYELvh9pieF9BwdvQH-54" value="View Account Information" style="ellipse;whiteSpace=wrap;html=1;" vertex="1" parent="1">
          <mxGeometry x="385" y="450" width="120" height="40" as="geometry" />
        </mxCell>
        <mxCell id="EUaYELvh9pieF9BwdvQH-57" style="edgeStyle=orthogonalEdgeStyle;rounded=0;orthogonalLoop=1;jettySize=auto;html=1;" edge="1" parent="1" source="EUaYELvh9pieF9BwdvQH-55" target="EUaYELvh9pieF9BwdvQH-22">
          <mxGeometry relative="1" as="geometry">
            <Array as="points">
              <mxPoint x="520" y="520" />
              <mxPoint x="520" y="398" />
            </Array>
          </mxGeometry>
        </mxCell>
        <mxCell id="EUaYELvh9pieF9BwdvQH-58" style="edgeStyle=orthogonalEdgeStyle;rounded=0;orthogonalLoop=1;jettySize=auto;html=1;endArrow=block;endFill=1;" edge="1" parent="1" source="EUaYELvh9pieF9BwdvQH-55" target="EUaYELvh9pieF9BwdvQH-34">
          <mxGeometry relative="1" as="geometry">
            <Array as="points">
              <mxPoint x="370" y="520" />
              <mxPoint x="370" y="400" />
            </Array>
          </mxGeometry>
        </mxCell>
        <mxCell id="EUaYELvh9pieF9BwdvQH-55" value="View Account Orders" style="ellipse;whiteSpace=wrap;html=1;" vertex="1" parent="1">
          <mxGeometry x="385" y="500" width="120" height="40" as="geometry" />
        </mxCell>
      </root>
    </mxGraphModel>
  </diagram>
</mxfile>
